  0
SECTION
  2
HEADER
  9
$ACADVER
  1
AC1014
  9
$HANDSEED
  5
FFFF
  9
$MEASUREMENT
 70
     1
  0
ENDSEC
  0
SECTION
  2
TABLES
  0
TABLE
  2
VPORT
  5
8
330
0
100
AcDbSymbolTable
 70
     4
  0
VPORT
  5
2E
330
8
100
AcDbSymbolTableRecord
100
AcDbViewportTableRecord
  2
*ACTIVE
 70
     0
 10
0.0
 20
0.0
 11
1.0
 21
1.0
 12
210.0
 22
148.5
 13
0.0
 23
0.0
 14
10.0
 24
10.0
 15
10.0
 25
10.0
 16
0.0
 26
0.0
 36
1.0
 17
0.0
 27
0.0
 37
0.0
 40
341.0
 41
1.24
 42
50.0
 43
0.0
 44
0.0
 50
0.0
 51
0.0
 71
     0
 72
   100
 73
     1
 74
     3
 75
     0
 76
     0
 77
     0
 78
     0
  0
ENDTAB
  0
TABLE
  2
LTYPE
  5
5
330
0
100
AcDbSymbolTable
 70
     1
  0
LTYPE
  5
14
330
5
100
AcDbSymbolTableRecord
100
AcDbLinetypeTableRecord
  2
BYBLOCK
 70
     0
  3

 72
    65
 73
     0
 40
0.0
  0
LTYPE
  5
15
330
5
100
AcDbSymbolTableRecord
100
AcDbLinetypeTableRecord
  2
BYLAYER
 70
     0
  3

 72
    65
 73
     0
 40
0.0
  0
LTYPE
  5
16
330
5
100
AcDbSymbolTableRecord
100
AcDbLinetypeTableRecord
  2
CONTINUOUS
 70
     0
  3
Solid line
 72
    65
 73
     0
 40
0.0
  0
ENDTAB
  0
TABLE
  2
LAYER
  5
2
100
AcDbSymbolTable
 70
39
  0
LAYER
  5
50
100
AcDbSymbolTableRecord
100
AcDbLayerTableRecord
  2
0
 70
0
  6
CONTINUOUS
  0
LAYER
  5
51
100
AcDbSymbolTableRecord
100
AcDbLayerTableRecord
  2
SECTION_CUTTING_LINE
 70
0
  6
CONTINUOUS
  0
LAYER
  5
52
100
AcDbSymbolTableRecord
100
AcDbLayerTableRecord
  2
DETAIL_VIEW_BORDER
 70
0
  6
CONTINUOUS
  0
LAYER
  5
53
100
AcDbSymbolTableRecord
100
AcDbLayerTableRecord
  2
DETAIL_VIEW_PARENT_BORDER
 70
0
  6
CONTINUOUS
  0
LAYER
  5
54
100
AcDbSymbolTableRecord
100
AcDbLayerTableRecord
  2
TEXT
 70
0
  6
CONTINUOUS
  0
LAYER
  5
55
100
AcDbSymbolTableRecord
100
AcDbLayerTableRecord
  2
SKETCHED_GEOMETRY
 70
0
  6
CONTINUOUS
  0
LAYER
  5
56
100
AcDbSymbolTableRecord
100
AcDbLayerTableRecord
  2
VIRTUAL_SHARPS
 70
0
  6
CONTINUOUS
  0
LAYER
  5
57
100
AcDbSymbolTableRecord
100
AcDbLayerTableRecord
  2
CENTERLINES
 70
0
  6
CONTINUOUS
  0
LAYER
  5
58
100
AcDbSymbolTableRecord
100
AcDbLayerTableRecord
  2
CENTERMARKS
 70
0
  6
CONTINUOUS
  0
LAYER
  5
59
100
AcDbSymbolTableRecord
100
AcDbLayerTableRecord
  2
TABLES
 70
0
  6
CONTINUOUS
  0
LAYER
  5
5a
100
AcDbSymbolTableRecord
100
AcDbLayerTableRecord
  2
IMAGES
 70
0
  6
CONTINUOUS
  0
LAYER
  5
5b
100
AcDbSymbolTableRecord
100
AcDbLayerTableRecord
  2
ANNOTATION_LINES
 70
0
  6
CONTINUOUS
  0
LAYER
  5
5c
100
AcDbSymbolTableRecord
100
AcDbLayerTableRecord
  2
ANNOTATION_TEXT
 70
0
  6
CONTINUOUS
  0
LAYER
  5
5d
100
AcDbSymbolTableRecord
100
AcDbLayerTableRecord
  2
SIDE_THREAD_SYMBOLS
 70
0
  6
CONTINUOUS
  0
LAYER
  5
5e
100
AcDbSymbolTableRecord
100
AcDbLayerTableRecord
  2
SIDE_THREAD_SYMBOLS_HIDDEN
 70
0
  6
CONTINUOUS
  0
LAYER
  5
5f
100
AcDbSymbolTableRecord
100
AcDbLayerTableRecord
  2
SURFACE_THREAD_SYMBOLS
 70
0
  6
CONTINUOUS
  0
LAYER
  5
60
100
AcDbSymbolTableRecord
100
AcDbLayerTableRecord
  2
SURFACE_THREAD_SYMBOLS_ON_
 70
0
  6
CONTINUOUS
  0
LAYER
  5
61
100
AcDbSymbolTableRecord
100
AcDbLayerTableRecord
  2
SURFACE_THREAD_SYMBOLS_HID
 70
0
  6
CONTINUOUS
  0
LAYER
  5
62
100
AcDbSymbolTableRecord
100
AcDbLayerTableRecord
  2
BLIND_THREAD_SYMBOLS
 70
0
  6
CONTINUOUS
  0
LAYER
  5
63
100
AcDbSymbolTableRecord
100
AcDbLayerTableRecord
  2
BLIND_THREAD_SYMBOLS_HIDDE
 70
0
  6
CONTINUOUS
  0
LAYER
  5
64
100
AcDbSymbolTableRecord
100
AcDbLayerTableRecord
  2
EXPLODE_LINES
 70
0
  6
CONTINUOUS
  0
LAYER
  5
65
100
AcDbSymbolTableRecord
100
AcDbLayerTableRecord
  2
HIDDEN_EXPLODE_LINES
 70
0
  6
CONTINUOUS
  0
LAYER
  5
66
100
AcDbSymbolTableRecord
100
AcDbLayerTableRecord
  2
BREAK_LINES
 70
0
  6
CONTINUOUS
  0
LAYER
  5
67
100
AcDbSymbolTableRecord
100
AcDbLayerTableRecord
  2
SHEETMETAL_BEND_LINES_UP
 70
0
  6
CONTINUOUS
  0
LAYER
  5
68
100
AcDbSymbolTableRecord
100
AcDbLayerTableRecord
  2
SHEETMETAL_BEND_LINES_DOWN
 70
0
  6
CONTINUOUS
  0
LAYER
  5
69
100
AcDbSymbolTableRecord
100
AcDbLayerTableRecord
  2
SHEETMETAL_BEND_TANGENT_LI
 70
0
  6
CONTINUOUS
  0
LAYER
  5
6a
100
AcDbSymbolTableRecord
100
AcDbLayerTableRecord
  2
SHEETMETAL_CUT_LINES
 70
0
  6
CONTINUOUS
  0
LAYER
  5
6b
100
AcDbSymbolTableRecord
100
AcDbLayerTableRecord
  2
REGION_ASSOC_POINTS
 70
0
  6
CONTINUOUS
  0
LAYER
  5
6c
100
AcDbSymbolTableRecord
100
AcDbLayerTableRecord
  2
HIDDEN
 70
0
  6
CONTINUOUS
  0
LAYER
  5
6d
100
AcDbSymbolTableRecord
100
AcDbLayerTableRecord
  2
VISIBLE
 70
0
  6
CONTINUOUS
  0
LAYER
  5
6e
100
AcDbSymbolTableRecord
100
AcDbLayerTableRecord
  2
MODELSKETCH_VISIBLE
 70
0
  6
CONTINUOUS
  0
LAYER
  5
6f
100
AcDbSymbolTableRecord
100
AcDbLayerTableRecord
  2
MODELSKETCH_POINT
 70
0
  6
CONTINUOUS
  0
LAYER
  5
70
100
AcDbSymbolTableRecord
100
AcDbLayerTableRecord
  2
MODELSKETCH_CONSTRUCTION
 70
0
  6
CONTINUOUS
  0
LAYER
  5
71
100
AcDbSymbolTableRecord
100
AcDbLayerTableRecord
  2
HIDDEN_BASE_VIEW
 70
0
  6
CONTINUOUS
  0
LAYER
  5
72
100
AcDbSymbolTableRecord
100
AcDbLayerTableRecord
  2
TANGENT_LINES
 70
0
  6
CONTINUOUS
  0
LAYER
  5
73
100
AcDbSymbolTableRecord
100
AcDbLayerTableRecord
  2
TANGENT_HIDDEN
 70
0
  6
CONTINUOUS
  0
LAYER
  5
74
100
AcDbSymbolTableRecord
100
AcDbLayerTableRecord
  2
INVISIBLE_LINES
 70
0
  6
CONTINUOUS
  0
LAYER
  5
75
100
AcDbSymbolTableRecord
100
AcDbLayerTableRecord
  2
VIEW_HATCHES
 70
0
  6
CONTINUOUS
  0
LAYER
  5
76
100
AcDbSymbolTableRecord
100
AcDbLayerTableRecord
  2
SECTION_JOG_LINES
 70
0
  6
CONTINUOUS
  0
ENDTAB
  0
TABLE
  2
STYLE
  5
3
330
0
100
AcDbSymbolTable
 70
     1
  0
STYLE
  5
11
330
3
100
AcDbSymbolTableRecord
100
AcDbTextStyleTableRecord
  2
STANDARD
 70
     0
 40
0.0
 41
1.0
 50
0.0
 71
     0
 42
2.5
  3
txt
  4

  0
ENDTAB
  0
TABLE
  2
VIEW
  5
6
330
0
100
AcDbSymbolTable
 70
     0
  0
ENDTAB
  0
TABLE
  2
UCS
  5
7
330
0
100
AcDbSymbolTable
 70
     0
  0
ENDTAB
  0
TABLE
  2
APPID
  5
9
330
0
100
AcDbSymbolTable
 70
     2
  0
APPID
  5
12
330
9
100
AcDbSymbolTableRecord
100
AcDbRegAppTableRecord
  2
ACAD
 70
     0
  0
ENDTAB
  0
TABLE
  2
DIMSTYLE
  5
A
330
0
100
AcDbSymbolTable
 70
     1
  0
DIMSTYLE
105
27
330
A
100
AcDbSymbolTableRecord
100
AcDbDimStyleTableRecord
  2
ISO-25
 70
     0
  3

  4

  5

  6

  7

 40
1.0
 41
2.5
 42
0.625
 43
3.75
 44
1.25
 45
0.0
 46
0.0
 47
0.0
 48
0.0
140
2.5
141
2.5
142
0.0
143
0.03937007874016
144
1.0
145
0.0
146
1.0
147
0.625
 71
     0
 72
     0
 73
     0
 74
     0
 75
     0
 76
     0
 77
     1
 78
     8
170
     0
171
     3
172
     1
173
     0
174
     0
175
     0
176
     0
177
     0
178
     0
270
     2
271
     2
272
     2
273
     2
274
     3
340
11
275
     0
280
     0
281
     0
282
     0
283
     0
284
     8
285
     0
286
     0
287
     3
288
     0
  0
ENDTAB
  0
TABLE
  2
BLOCK_RECORD
  5
1
330
0
100
AcDbSymbolTable
 70
     1
  0
BLOCK_RECORD
  5
1F
330
1
100
AcDbSymbolTableRecord
100
AcDbBlockTableRecord
  2
*MODEL_SPACE
  0
BLOCK_RECORD
  5
1B
330
1
100
AcDbSymbolTableRecord
100
AcDbBlockTableRecord
  2
*PAPER_SPACE
  0
ENDTAB
  0
ENDSEC
  0
SECTION
  2
BLOCKS
  0
BLOCK
  5
20
330
1F
100
AcDbEntity
  8
0
100
AcDbBlockBegin
  2
*MODEL_SPACE
 70
     0
 10
0.0
 20
0.0
 30
0.0
  3
*MODEL_SPACE
  1

  0
ENDBLK
  5
21
330
1F
100
AcDbEntity
  8
0
100
AcDbBlockEnd
  0
BLOCK
  5
1C
330
1B
100
AcDbEntity
 67
     1
  8
0
100
AcDbBlockBegin
  2
*PAPER_SPACE
  1

  0
ENDBLK
  5
1D
330
1B
100
AcDbEntity
 67
     1
  8
0
100
AcDbBlockEnd
  0
ENDSEC
  0
SECTION
  2
ENTITIES
  0
SPLINE
  5
100
100
AcDbEntity
  8
VISIBLE
 62
7
100
AcDbSpline
 70
8
 71
3
 72
8
 73
4
 74
0
 40
0
 40
0
 40
0
 40
0
 40
1
 40
1
 40
1
 40
1
 10
142.166150
 20
66.957945
 30
0.0
 10
142.167053
 20
68.477628
 30
0.0
 10
141.356830
 20
69.882259
 30
0.0
 10
140.040896
 20
70.642361
 30
0.0
  0
SPLINE
  5
101
100
AcDbEntity
  8
VISIBLE
 62
7
100
AcDbSpline
 70
8
 71
3
 72
8
 73
4
 74
0
 40
0
 40
0
 40
0
 40
0
 40
1
 40
1
 40
1
 40
1
 10
140.040896
 20
70.642361
 30
0.0
 10
138.724963
 20
71.402463
 30
0.0
 10
137.103405
 20
71.402463
 30
0.0
 10
135.787471
 20
70.642361
 30
0.0
  0
SPLINE
  5
102
100
AcDbEntity
  8
VISIBLE
 62
7
100
AcDbSpline
 70
8
 71
3
 72
8
 73
4
 74
0
 40
0
 40
0
 40
0
 40
0
 40
1
 40
1
 40
1
 40
1
 10
135.787471
 20
70.642361
 30
0.0
 10
134.471538
 20
69.882259
 30
0.0
 10
133.661315
 20
68.477628
 30
0.0
 10
133.662217
 20
66.957945
 30
0.0
  0
SPLINE
  5
103
100
AcDbEntity
  8
VISIBLE
 62
7
100
AcDbSpline
 70
8
 71
3
 72
8
 73
4
 74
0
 40
0
 40
0
 40
0
 40
0
 40
1
 40
1
 40
1
 40
1
 10
133.662217
 20
66.957945
 30
0.0
 10
133.661315
 20
65.438262
 30
0.0
 10
134.471538
 20
64.033631
 30
0.0
 10
135.787471
 20
63.273529
 30
0.0
  0
SPLINE
  5
104
100
AcDbEntity
  8
VISIBLE
 62
7
100
AcDbSpline
 70
8
 71
3
 72
8
 73
4
 74
0
 40
0
 40
0
 40
0
 40
0
 40
1
 40
1
 40
1
 40
1
 10
135.787471
 20
63.273529
 30
0.0
 10
137.103405
 20
62.513427
 30
0.0
 10
138.724963
 20
62.513427
 30
0.0
 10
140.040896
 20
63.273529
 30
0.0
  0
SPLINE
  5
105
100
AcDbEntity
  8
VISIBLE
 62
7
100
AcDbSpline
 70
8
 71
3
 72
8
 73
4
 74
0
 40
0
 40
0
 40
0
 40
0
 40
1
 40
1
 40
1
 40
1
 10
140.040896
 20
63.273529
 30
0.0
 10
141.356830
 20
64.033631
 30
0.0
 10
142.167053
 20
65.438262
 30
0.0
 10
142.166150
 20
66.957945
 30
0.0
  0
LWPOLYLINE
  5
106
100
AcDbEntity
  8
VISIBLE
 62
7
100
AcDbPolyline
 90
1
 70
1
 10
142.166150
 20
66.957945
 30
0.0
  0
SPLINE
  5
107
100
AcDbEntity
  8
VISIBLE
 62
7
100
AcDbSpline
 70
8
 71
3
 72
8
 73
4
 74
0
 40
0
 40
0
 40
0
 40
0
 40
1
 40
1
 40
1
 40
1
 10
24.528394
 20
41.446102
 30
0.0
 10
24.528421
 20
32.052935
 30
0.0
 10
32.143095
 20
24.438282
 30
0.0
 10
41.536263
 20
24.438282
 30
0.0
  0
LWPOLYLINE
  5
108
100
AcDbEntity
  8
VISIBLE
 62
7
100
AcDbPolyline
 90
2
 70
0
 10
24.528612
 20
78.294117
 30
0.0
 10
24.528612
 20
41.446627
 30
0.0
  0
SPLINE
  5
109
100
AcDbEntity
  8
VISIBLE
 62
7
100
AcDbSpline
 70
8
 71
3
 72
8
 73
4
 74
0
 40
0
 40
0
 40
0
 40
0
 40
1
 40
1
 40
1
 40
1
 10
234.292112
 20
24.438282
 30
0.0
 10
243.685278
 20
24.438284
 30
0.0
 10
251.299950
 20
32.052936
 30
0.0
 10
251.299977
 20
41.446102
 30
0.0
  0
LWPOLYLINE
  5
10a
100
AcDbEntity
  8
VISIBLE
 62
7
100
AcDbPolyline
 90
2
 70
0
 10
41.536357
 20
24.436632
 30
0.0
 10
234.292074
 20
24.436632
 30
0.0
  0
SPLINE
  5
10b
100
AcDbEntity
  8
VISIBLE
 62
7
100
AcDbSpline
 70
8
 71
3
 72
8
 73
4
 74
0
 40
0
 40
0
 40
0
 40
0
 40
1
 40
1
 40
1
 40
1
 10
251.299977
 20
78.296517
 30
0.0
 10
251.299975
 20
87.689701
 30
0.0
 10
243.685295
 20
95.304380
 30
0.0
 10
234.292112
 20
95.304382
 30
0.0
  0
LWPOLYLINE
  5
10c
100
AcDbEntity
  8
VISIBLE
 62
7
100
AcDbPolyline
 90
2
 70
0
 10
251.299969
 20
78.294117
 30
0.0
 10
251.299969
 20
41.446627
 30
0.0
  0
SPLINE
  5
10d
100
AcDbEntity
  8
VISIBLE
 62
7
100
AcDbSpline
 70
8
 71
3
 72
8
 73
4
 74
0
 40
0
 40
0
 40
0
 40
0
 40
1
 40
1
 40
1
 40
1
 10
41.536263
 20
95.304382
 30
0.0
 10
32.143077
 20
95.304382
 30
0.0
 10
24.528396
 20
87.689702
 30
0.0
 10
24.528394
 20
78.296517
 30
0.0
  0
LWPOLYLINE
  5
10e
100
AcDbEntity
  8
VISIBLE
 62
7
100
AcDbPolyline
 90
2
 70
0
 10
234.292074
 20
95.304142
 30
0.0
 10
41.536357
 20
95.304142
 30
0.0
  0
LWPOLYLINE
  5
10f
100
AcDbEntity
  8
VISIBLE
 62
7
100
AcDbPolyline
 90
3
 70
0
 10
123.740830
 20
35.776629
 30
0.0
 10
152.087372
 20
35.776629
 30
0.0
 10
152.087372
 20
27.271631
 30
0.0
  0
LWPOLYLINE
  5
110
100
AcDbEntity
  8
VISIBLE
 62
7
100
AcDbPolyline
 90
2
 70
0
 10
123.740830
 20
27.271631
 30
0.0
 10
152.087372
 20
27.271631
 30
0.0
  0
LWPOLYLINE
  5
111
100
AcDbEntity
  8
VISIBLE
 62
7
100
AcDbPolyline
 90
2
 70
0
 10
123.740830
 20
35.776629
 30
0.0
 10
123.740830
 20
27.271631
 30
0.0
  0
LWPOLYLINE
  5
112
100
AcDbEntity
  8
VISIBLE
 62
7
100
AcDbPolyline
 90
3
 70
0
 10
106.733085
 20
35.776629
 30
0.0
 10
106.733085
 20
27.271631
 30
0.0
 10
78.386843
 20
27.271631
 30
0.0
  0
LWPOLYLINE
  5
113
100
AcDbEntity
  8
VISIBLE
 62
7
100
AcDbPolyline
 90
2
 70
0
 10
78.386843
 20
35.776629
 30
0.0
 10
78.386843
 20
27.271631
 30
0.0
  0
LWPOLYLINE
  5
114
100
AcDbEntity
  8
VISIBLE
 62
7
100
AcDbPolyline
 90
2
 70
0
 10
106.733085
 20
35.776629
 30
0.0
 10
78.386843
 20
35.776629
 30
0.0
  0
LWPOLYLINE
  5
115
100
AcDbEntity
  8
VISIBLE
 62
7
100
AcDbPolyline
 90
3
 70
0
 10
169.095268
 20
35.776629
 30
0.0
 10
197.441735
 20
35.776629
 30
0.0
 10
197.441735
 20
27.271631
 30
0.0
  0
LWPOLYLINE
  5
116
100
AcDbEntity
  8
VISIBLE
 62
7
100
AcDbPolyline
 90
2
 70
0
 10
169.095268
 20
27.271631
 30
0.0
 10
197.441735
 20
27.271631
 30
0.0
  0
LWPOLYLINE
  5
117
100
AcDbEntity
  8
VISIBLE
 62
7
100
AcDbPolyline
 90
2
 70
0
 10
169.095268
 20
35.776629
 30
0.0
 10
169.095268
 20
27.271631
 30
0.0
  0
LWPOLYLINE
  5
118
100
AcDbEntity
  8
SECTION_JOG_LINES
 62
1
100
AcDbPolyline
 90
4
 70
1
 10
130.252756
 20
74.619343
 30
0.0
 10
145.575611
 20
74.619343
 30
0.0
 10
145.575611
 20
59.296489
 30
0.0
 10
130.252756
 20
59.296489
 30
0.0
  0
ENDSEC
  0
SECTION
  2
OBJECTS
  0
DICTIONARY
  5
C
330
0
100
AcDbDictionary
  3
ACAD_GROUP
350
D
  3
ACAD_MLINESTYLE
350
17
  0
DICTIONARY
  5
D
330
C
100
AcDbDictionary
  0
DICTIONARY
  5
1A
330
C
100
AcDbDictionary
  0
DICTIONARY
  5
17
330
C
100
AcDbDictionary
  3
STANDARD
350
18
  0
DICTIONARY
  5
19
330
C
100
AcDbDictionary
  0
ENDSEC
  0
EOF
