<?xml version="1.0" encoding="UTF-8" standalone="no"?>
<!-- Created with Inkscape (http://www.inkscape.org/) -->

<svg
   xmlns:dc="http://purl.org/dc/elements/1.1/"
   xmlns:cc="http://creativecommons.org/ns#"
   xmlns:rdf="http://www.w3.org/1999/02/22-rdf-syntax-ns#"
   xmlns:svg="http://www.w3.org/2000/svg"
   xmlns="http://www.w3.org/2000/svg"
   xmlns:sodipodi="http://sodipodi.sourceforge.net/DTD/sodipodi-0.dtd"
   xmlns:inkscape="http://www.inkscape.org/namespaces/inkscape"
   width="210mm"
   height="297mm"
   viewBox="0 0 210 297"
   version="1.1"
   id="svg8"
   sodipodi:docname="corners.svg"
   inkscape:version="0.92.5 (2060ec1f9f, 2020-04-08)">
  <defs
     id="defs2" />
  <sodipodi:namedview
     id="base"
     pagecolor="#ffffff"
     bordercolor="#666666"
     borderopacity="1.0"
     inkscape:pageopacity="0.0"
     inkscape:pageshadow="2"
     inkscape:zoom="0.54155831"
     inkscape:cx="308.42951"
     inkscape:cy="528.108"
     inkscape:document-units="mm"
     inkscape:current-layer="layer1"
     showgrid="false"
     inkscape:window-width="1920"
     inkscape:window-height="1031"
     inkscape:window-x="0"
     inkscape:window-y="25"
     inkscape:window-maximized="1" />
  <metadata
     id="metadata5">
    <rdf:RDF>
      <cc:Work
         rdf:about="">
        <dc:format>image/svg+xml</dc:format>
        <dc:type
           rdf:resource="http://purl.org/dc/dcmitype/StillImage" />
        <dc:title></dc:title>
      </cc:Work>
    </rdf:RDF>
  </metadata>
  <g
     inkscape:label="Layer 1"
     inkscape:groupmode="layer"
     id="layer1">
    <g
       style="shape-rendering:crispEdges"
       id="g3772"
       transform="matrix(13.333333,0,0,13.333333,13.965055,68.108691)">
      <rect
         id="rect3713"
         height="6"
         width="6"
         y="0"
         x="0"
         style="fill:#000000" />
      <rect
         id="rect3715"
         y="1"
         x="1"
         height="1"
         width="1"
         style="fill:#ffffff" />
      <rect
         id="rect3717"
         y="1"
         x="2"
         height="1"
         width="1"
         style="fill:#000000" />
      <rect
         id="rect3719"
         y="1"
         x="3"
         height="1"
         width="1"
         style="fill:#ffffff" />
      <rect
         id="rect3721"
         y="1"
         x="4"
         height="1"
         width="1"
         style="fill:#ffffff" />
      <rect
         id="rect3723"
         y="2"
         x="1"
         height="1"
         width="1"
         style="fill:#000000" />
      <rect
         id="rect3725"
         y="2"
         x="2"
         height="1"
         width="1"
         style="fill:#ffffff" />
      <rect
         id="rect3727"
         y="2"
         x="3"
         height="1"
         width="1"
         style="fill:#000000" />
      <rect
         id="rect3729"
         y="2"
         x="4"
         height="1"
         width="1"
         style="fill:#ffffff" />
      <rect
         id="rect3731"
         y="3"
         x="1"
         height="1"
         width="1"
         style="fill:#000000" />
      <rect
         id="rect3733"
         y="3"
         x="2"
         height="1"
         width="1"
         style="fill:#000000" />
      <rect
         id="rect3735"
         y="3"
         x="3"
         height="1"
         width="1"
         style="fill:#ffffff" />
      <rect
         id="rect3737"
         y="3"
         x="4"
         height="1"
         width="1"
         style="fill:#ffffff" />
      <rect
         id="rect3739"
         y="4"
         x="1"
         height="1"
         width="1"
         style="fill:#000000" />
      <rect
         id="rect3741"
         y="4"
         x="2"
         height="1"
         width="1"
         style="fill:#000000" />
      <rect
         id="rect3743"
         y="4"
         x="3"
         height="1"
         width="1"
         style="fill:#ffffff" />
      <rect
         id="rect3745"
         y="4"
         x="4"
         height="1"
         width="1"
         style="fill:#000000" />
    </g>
    <g
       style="shape-rendering:crispEdges"
       id="g3833"
       transform="matrix(13.333333,0,0,13.333333,118.11342,68.108691)">
      <rect
         id="rect3774"
         height="6"
         width="6"
         y="0"
         x="0"
         style="fill:#000000" />
      <rect
         id="rect3776"
         y="1"
         x="1"
         height="1"
         width="1"
         style="fill:#000000" />
      <rect
         id="rect3778"
         y="1"
         x="2"
         height="1"
         width="1"
         style="fill:#000000" />
      <rect
         id="rect3780"
         y="1"
         x="3"
         height="1"
         width="1"
         style="fill:#000000" />
      <rect
         id="rect3782"
         y="1"
         x="4"
         height="1"
         width="1"
         style="fill:#000000" />
      <rect
         id="rect3784"
         y="2"
         x="1"
         height="1"
         width="1"
         style="fill:#ffffff" />
      <rect
         id="rect3786"
         y="2"
         x="2"
         height="1"
         width="1"
         style="fill:#ffffff" />
      <rect
         id="rect3788"
         y="2"
         x="3"
         height="1"
         width="1"
         style="fill:#ffffff" />
      <rect
         id="rect3790"
         y="2"
         x="4"
         height="1"
         width="1"
         style="fill:#ffffff" />
      <rect
         id="rect3792"
         y="3"
         x="1"
         height="1"
         width="1"
         style="fill:#ffffff" />
      <rect
         id="rect3794"
         y="3"
         x="2"
         height="1"
         width="1"
         style="fill:#000000" />
      <rect
         id="rect3796"
         y="3"
         x="3"
         height="1"
         width="1"
         style="fill:#000000" />
      <rect
         id="rect3798"
         y="3"
         x="4"
         height="1"
         width="1"
         style="fill:#ffffff" />
      <rect
         id="rect3800"
         y="4"
         x="1"
         height="1"
         width="1"
         style="fill:#ffffff" />
      <rect
         id="rect3802"
         y="4"
         x="2"
         height="1"
         width="1"
         style="fill:#000000" />
      <rect
         id="rect3804"
         y="4"
         x="3"
         height="1"
         width="1"
         style="fill:#ffffff" />
      <rect
         id="rect3806"
         y="4"
         x="4"
         height="1"
         width="1"
         style="fill:#000000" />
    </g>
    <g
       style="shape-rendering:crispEdges"
       id="g3894"
       transform="matrix(13.333333,0,0,13.333333,13.965056,182.38166)">
      <rect
         id="rect3835"
         height="6"
         width="6"
         y="0"
         x="0"
         style="fill:#000000" />
      <rect
         id="rect3837"
         y="1"
         x="1"
         height="1"
         width="1"
         style="fill:#000000" />
      <rect
         id="rect3839"
         y="1"
         x="2"
         height="1"
         width="1"
         style="fill:#000000" />
      <rect
         id="rect3841"
         y="1"
         x="3"
         height="1"
         width="1"
         style="fill:#ffffff" />
      <rect
         id="rect3843"
         y="1"
         x="4"
         height="1"
         width="1"
         style="fill:#ffffff" />
      <rect
         id="rect3845"
         y="2"
         x="1"
         height="1"
         width="1"
         style="fill:#000000" />
      <rect
         id="rect3847"
         y="2"
         x="2"
         height="1"
         width="1"
         style="fill:#000000" />
      <rect
         id="rect3849"
         y="2"
         x="3"
         height="1"
         width="1"
         style="fill:#ffffff" />
      <rect
         id="rect3851"
         y="2"
         x="4"
         height="1"
         width="1"
         style="fill:#ffffff" />
      <rect
         id="rect3853"
         y="3"
         x="1"
         height="1"
         width="1"
         style="fill:#000000" />
      <rect
         id="rect3855"
         y="3"
         x="2"
         height="1"
         width="1"
         style="fill:#000000" />
      <rect
         id="rect3857"
         y="3"
         x="3"
         height="1"
         width="1"
         style="fill:#ffffff" />
      <rect
         id="rect3859"
         y="3"
         x="4"
         height="1"
         width="1"
         style="fill:#000000" />
      <rect
         id="rect3861"
         y="4"
         x="1"
         height="1"
         width="1"
         style="fill:#ffffff" />
      <rect
         id="rect3863"
         y="4"
         x="2"
         height="1"
         width="1"
         style="fill:#ffffff" />
      <rect
         id="rect3865"
         y="4"
         x="3"
         height="1"
         width="1"
         style="fill:#000000" />
      <rect
         id="rect3867"
         y="4"
         x="4"
         height="1"
         width="1"
         style="fill:#ffffff" />
    </g>
    <g
       style="shape-rendering:crispEdges"
       id="g3955"
       transform="matrix(13.333333,0,0,13.333333,118.11342,182.38166)">
      <rect
         id="rect3896"
         height="6"
         width="6"
         y="0"
         x="0"
         style="fill:#000000" />
      <rect
         id="rect3898"
         y="1"
         x="1"
         height="1"
         width="1"
         style="fill:#ffffff" />
      <rect
         id="rect3900"
         y="1"
         x="2"
         height="1"
         width="1"
         style="fill:#000000" />
      <rect
         id="rect3902"
         y="1"
         x="3"
         height="1"
         width="1"
         style="fill:#000000" />
      <rect
         id="rect3904"
         y="1"
         x="4"
         height="1"
         width="1"
         style="fill:#ffffff" />
      <rect
         id="rect3906"
         y="2"
         x="1"
         height="1"
         width="1"
         style="fill:#ffffff" />
      <rect
         id="rect3908"
         y="2"
         x="2"
         height="1"
         width="1"
         style="fill:#000000" />
      <rect
         id="rect3910"
         y="2"
         x="3"
         height="1"
         width="1"
         style="fill:#000000" />
      <rect
         id="rect3912"
         y="2"
         x="4"
         height="1"
         width="1"
         style="fill:#ffffff" />
      <rect
         id="rect3914"
         y="3"
         x="1"
         height="1"
         width="1"
         style="fill:#000000" />
      <rect
         id="rect3916"
         y="3"
         x="2"
         height="1"
         width="1"
         style="fill:#ffffff" />
      <rect
         id="rect3918"
         y="3"
         x="3"
         height="1"
         width="1"
         style="fill:#000000" />
      <rect
         id="rect3920"
         y="3"
         x="4"
         height="1"
         width="1"
         style="fill:#000000" />
      <rect
         id="rect3922"
         y="4"
         x="1"
         height="1"
         width="1"
         style="fill:#000000" />
      <rect
         id="rect3924"
         y="4"
         x="2"
         height="1"
         width="1"
         style="fill:#ffffff" />
      <rect
         id="rect3926"
         y="4"
         x="3"
         height="1"
         width="1"
         style="fill:#ffffff" />
      <rect
         id="rect3928"
         y="4"
         x="4"
         height="1"
         width="1"
         style="fill:#000000" />
    </g>
    <g
       transform="matrix(13.333333,0,0,13.333333,13.965055,68.108691)"
       id="g3991"
       style="shape-rendering:crispEdges">
      <rect
         style="fill:#000000"
         x="0"
         y="0"
         width="6"
         height="6"
         id="rect3957" />
      <rect
         style="fill:#ffffff"
         width="1"
         height="1"
         x="1"
         y="1"
         id="rect3959" />
      <rect
         style="fill:#000000"
         width="1"
         height="1"
         x="2"
         y="1"
         id="rect3961" />
      <rect
         style="fill:#ffffff"
         width="1"
         height="1"
         x="3"
         y="1"
         id="rect3963" />
      <rect
         style="fill:#ffffff"
         width="1"
         height="1"
         x="4"
         y="1"
         id="rect3965" />
      <rect
         style="fill:#000000"
         width="1"
         height="1"
         x="1"
         y="2"
         id="rect3967" />
      <rect
         style="fill:#ffffff"
         width="1"
         height="1"
         x="2"
         y="2"
         id="rect3969" />
      <rect
         style="fill:#000000"
         width="1"
         height="1"
         x="3"
         y="2"
         id="rect3971" />
      <rect
         style="fill:#ffffff"
         width="1"
         height="1"
         x="4"
         y="2"
         id="rect3973" />
      <rect
         style="fill:#000000"
         width="1"
         height="1"
         x="1"
         y="3"
         id="rect3975" />
      <rect
         style="fill:#000000"
         width="1"
         height="1"
         x="2"
         y="3"
         id="rect3977" />
      <rect
         style="fill:#ffffff"
         width="1"
         height="1"
         x="3"
         y="3"
         id="rect3979" />
      <rect
         style="fill:#ffffff"
         width="1"
         height="1"
         x="4"
         y="3"
         id="rect3981" />
      <rect
         style="fill:#000000"
         width="1"
         height="1"
         x="1"
         y="4"
         id="rect3983" />
      <rect
         style="fill:#000000"
         width="1"
         height="1"
         x="2"
         y="4"
         id="rect3985" />
      <rect
         style="fill:#ffffff"
         width="1"
         height="1"
         x="3"
         y="4"
         id="rect3987" />
      <rect
         style="fill:#000000"
         width="1"
         height="1"
         x="4"
         y="4"
         id="rect3989" />
    </g>
    <g
       transform="matrix(13.333333,0,0,13.333333,118.11342,68.108691)"
       id="g4027"
       style="shape-rendering:crispEdges">
      <rect
         style="fill:#000000"
         x="0"
         y="0"
         width="6"
         height="6"
         id="rect3993" />
      <rect
         style="fill:#000000"
         width="1"
         height="1"
         x="1"
         y="1"
         id="rect3995" />
      <rect
         style="fill:#000000"
         width="1"
         height="1"
         x="2"
         y="1"
         id="rect3997" />
      <rect
         style="fill:#000000"
         width="1"
         height="1"
         x="3"
         y="1"
         id="rect3999" />
      <rect
         style="fill:#000000"
         width="1"
         height="1"
         x="4"
         y="1"
         id="rect4001" />
      <rect
         style="fill:#ffffff"
         width="1"
         height="1"
         x="1"
         y="2"
         id="rect4003" />
      <rect
         style="fill:#ffffff"
         width="1"
         height="1"
         x="2"
         y="2"
         id="rect4005" />
      <rect
         style="fill:#ffffff"
         width="1"
         height="1"
         x="3"
         y="2"
         id="rect4007" />
      <rect
         style="fill:#ffffff"
         width="1"
         height="1"
         x="4"
         y="2"
         id="rect4009" />
      <rect
         style="fill:#ffffff"
         width="1"
         height="1"
         x="1"
         y="3"
         id="rect4011" />
      <rect
         style="fill:#000000"
         width="1"
         height="1"
         x="2"
         y="3"
         id="rect4013" />
      <rect
         style="fill:#000000"
         width="1"
         height="1"
         x="3"
         y="3"
         id="rect4015" />
      <rect
         style="fill:#ffffff"
         width="1"
         height="1"
         x="4"
         y="3"
         id="rect4017" />
      <rect
         style="fill:#ffffff"
         width="1"
         height="1"
         x="1"
         y="4"
         id="rect4019" />
      <rect
         style="fill:#000000"
         width="1"
         height="1"
         x="2"
         y="4"
         id="rect4021" />
      <rect
         style="fill:#ffffff"
         width="1"
         height="1"
         x="3"
         y="4"
         id="rect4023" />
      <rect
         style="fill:#000000"
         width="1"
         height="1"
         x="4"
         y="4"
         id="rect4025" />
    </g>
    <text
       xml:space="preserve"
       style="font-style:normal;font-weight:normal;font-size:10.58333302px;line-height:1.25;font-family:sans-serif;letter-spacing:0px;word-spacing:0px;fill:#000000;fill-opacity:1;stroke:none;stroke-width:0.26458332"
       x="72.886917"
       y="36.727043"
       id="text4031"><tspan
         sodipodi:role="line"
         id="tspan4029"
         x="72.886917"
         y="36.727043"
         style="stroke-width:0.26458332">Field corners</tspan></text>
  </g>
</svg>
