<?xml version="1.0" encoding="UTF-8" standalone="no"?>
<svg
   viewBox="0 0 9335.4326 7029.9214"
   height="7029.9214"
   width="9335.4326"
   xml:space="preserve"
   id="svg2"
   version="1.1"
   sodipodi:docname="field.svg"
   inkscape:version="1.2.2 (732a01da63, 2022-12-09)"
   xmlns:inkscape="http://www.inkscape.org/namespaces/inkscape"
   xmlns:sodipodi="http://sodipodi.sourceforge.net/DTD/sodipodi-0.dtd"
   xmlns="http://www.w3.org/2000/svg"
   xmlns:svg="http://www.w3.org/2000/svg"
   xmlns:rdf="http://www.w3.org/1999/02/22-rdf-syntax-ns#"
   xmlns:cc="http://creativecommons.org/ns#"
   xmlns:dc="http://purl.org/dc/elements/1.1/"><sodipodi:namedview
     id="namedview101"
     pagecolor="#505050"
     bordercolor="#eeeeee"
     borderopacity="1"
     inkscape:showpageshadow="0"
     inkscape:pageopacity="0"
     inkscape:pagecheckerboard="0"
     inkscape:deskcolor="#505050"
     showgrid="false"
     inkscape:zoom="0.64"
     inkscape:cx="307.8125"
     inkscape:cy="6890.625"
     inkscape:window-width="1920"
     inkscape:window-height="1129"
     inkscape:window-x="-8"
     inkscape:window-y="-8"
     inkscape:window-maximized="1"
     inkscape:current-layer="svg2" /><metadata
     id="metadata8"><rdf:RDF><cc:Work
         rdf:about=""><dc:format>image/svg+xml</dc:format><dc:type
           rdf:resource="http://purl.org/dc/dcmitype/StillImage" /></cc:Work></rdf:RDF></metadata><defs
     id="defs6" /><g
     transform="matrix(1.3695905,0,0,1.3874839,-123.80415,-145.09758)"
     id="g10"><g
       id="g12"><path
         id="path14"
         style="fill:#44aa00;fill-opacity:1;fill-rule:nonzero;stroke:none"
         d="M 28.348,28.348 H 6973.227 V 5244.094 H 28.348 Z" /><g
         id="g16"><path
           id="path18"
           style="fill:none;stroke:#ffffff;stroke-width:56.6929;stroke-linecap:butt;stroke-linejoin:miter;stroke-miterlimit:4;stroke-dasharray:none;stroke-opacity:1"
           d="M 935.551,935.434 H 6066.262 V 4337.008 H 935.551 Z" /></g><g
         id="g20"><path
           id="path22"
           style="fill:none;stroke:#000000;stroke-width:56.6928;stroke-linecap:butt;stroke-linejoin:miter;stroke-miterlimit:4;stroke-dasharray:none;stroke-opacity:1"
           d="m 969.039,1388.977 h 822.047 V 3883.465 H 969.039" /></g><g
         id="g24"><path
           id="path26"
           style="fill:none;stroke:#000000;stroke-width:56.6929;stroke-linecap:butt;stroke-linejoin:miter;stroke-miterlimit:4;stroke-dasharray:none;stroke-opacity:1"
           d="M 6028.668,3883.465 H 5206.621 V 1388.977 h 822.047" /></g><g
         id="g28"><path
           id="path30"
           style="fill:none;stroke:#000000;stroke-width:56.6929;stroke-linecap:butt;stroke-linejoin:miter;stroke-miterlimit:4;stroke-dasharray:none;stroke-opacity:1"
           d="m 4322.836,2636.219 c 0,218.023 -86.609,427.113 -240.774,581.277 -154.164,154.164 -363.253,240.774 -581.273,240.774 -218.023,0 -427.113,-86.61 -581.277,-240.774 -154.164,-154.164 -240.77,-363.254 -240.77,-581.277 0,-218.02 86.606,-427.11 240.77,-581.274 154.164,-154.164 363.254,-240.773 581.277,-240.773 218.02,0 427.109,86.609 581.273,240.773 154.165,154.164 240.774,363.254 240.774,581.274 z" /></g><path
         id="path32"
         style="fill:#000000;fill-opacity:1;fill-rule:nonzero;stroke:none"
         d="m 2253.02,3487.738 c 0,7.828 -6.348,14.176 -14.172,14.176 -7.828,0 -14.176,-6.348 -14.176,-14.176 0,-7.824 6.348,-14.172 14.176,-14.172 7.824,0 14.172,6.348 14.172,14.172 z" /><path
         id="path34"
         style="fill:#000000;fill-opacity:1;fill-rule:nonzero;stroke:none"
         d="m 2253.32,1787.289 c 0,7.828 -6.347,14.176 -14.175,14.176 -7.829,0 -14.172,-6.348 -14.172,-14.176 0,-7.828 6.343,-14.172 14.172,-14.172 7.828,0 14.175,6.344 14.175,14.172 z" /><path
         id="path36"
         style="fill:#000000;fill-opacity:1;fill-rule:nonzero;stroke:none"
         d="m 3515.078,2636.219 c 0,7.828 -6.344,14.176 -14.172,14.176 -7.828,0 -14.172,-6.348 -14.172,-14.176 0,-7.824 6.344,-14.172 14.172,-14.172 7.828,0 14.172,6.348 14.172,14.172 z" /><path
         id="path38"
         style="fill:#000000;fill-opacity:1;fill-rule:nonzero;stroke:none"
         d="m 4777.082,1786.48 c 0,7.829 -6.344,14.176 -14.172,14.176 -7.828,0 -14.172,-6.347 -14.172,-14.176 0,-7.824 6.344,-14.171 14.172,-14.171 7.828,0 14.172,6.347 14.172,14.171 z" /><path
         id="path40"
         style="fill:#000000;fill-opacity:1;fill-rule:nonzero;stroke:none"
         d="m 4777.891,3484.348 c 0,7.828 -6.344,14.172 -14.172,14.172 -7.828,0 -14.172,-6.344 -14.172,-14.172 0,-7.828 6.344,-14.176 14.172,-14.176 7.828,0 14.172,6.348 14.172,14.176 z" /><g
         id="g42"><path
           id="path44"
           style="fill:none;stroke:#000000;stroke-width:28.3465;stroke-linecap:butt;stroke-linejoin:miter;stroke-miterlimit:4;stroke-dasharray:none;stroke-opacity:0.416244"
           d="M 855.617,1771.941 H 963.902 Z" /></g><g
         id="g46"><path
           id="path48"
           style="fill:none;stroke:#000000;stroke-width:28.3465;stroke-linecap:butt;stroke-linejoin:miter;stroke-miterlimit:4;stroke-dasharray:none;stroke-opacity:0.416244"
           d="M 855.625,3500.82 H 963.914 Z" /></g><g
         transform="scale(-1)"
         id="g50"><path
           id="path52"
           style="fill:none;stroke:#000000;stroke-width:28.3465;stroke-linecap:butt;stroke-linejoin:miter;stroke-miterlimit:4;stroke-dasharray:none;stroke-opacity:0.416244"
           d="m -6145.961,-3500.66 h 108.289 z" /></g><g
         transform="scale(-1)"
         id="g54"><path
           id="path56"
           style="fill:none;stroke:#000000;stroke-width:28.3465;stroke-linecap:butt;stroke-linejoin:miter;stroke-miterlimit:4;stroke-dasharray:none;stroke-opacity:0.416244"
           d="m -6145.949,-1771.781 h 108.289 z" /></g><path
         id="path58"
         style="fill:#fcffff;fill-opacity:1;fill-rule:nonzero;stroke:none"
         d="M 311.922,311.809 H 907.195 V 907.086 H 311.922 Z" /><path
         id="path60"
         style="fill:#000000;fill-opacity:1;fill-rule:nonzero;stroke:none"
         d="M 382.785,382.676 H 836.332 V 836.219 H 382.785 Z" /><path
         id="path62"
         style="fill:#000000;fill-opacity:1;fill-rule:nonzero;stroke:none"
         d="m 685.148,458.262 h 75.594 v 75.594 h -75.594 z" /><path
         id="path64"
         style="fill:#000000;fill-opacity:1;fill-rule:nonzero;stroke:none"
         d="m 685.148,533.855 h 75.594 v 75.594 h -75.594 z" /><path
         id="path66"
         style="fill:#ffffff;fill-opacity:1;fill-rule:nonzero;stroke:none"
         d="m 660.715,609.449 h 100.027 v 75.59 H 660.715 Z" /><path
         id="path68"
         style="fill:#ffffff;fill-opacity:1;fill-rule:nonzero;stroke:none"
         d="m 660.715,663.809 h 100.027 v 96.82 H 660.715 Z" /><path
         id="path70"
         style="fill:#000000;fill-opacity:1;fill-rule:nonzero;stroke:none"
         d="m 609.551,458.262 h 75.598 v 75.594 h -75.598 z" /><path
         id="path72"
         style="fill:#000000;fill-opacity:1;fill-rule:nonzero;stroke:none"
         d="m 609.551,533.855 h 75.598 v 75.594 h -75.598 z" /><path
         id="path74"
         style="fill:#ffffff;fill-opacity:1;fill-rule:nonzero;stroke:none"
         d="m 609.551,609.449 h 75.598 v 75.59 h -75.598 z" /><path
         id="path76"
         style="fill:#ffffff;fill-opacity:1;fill-rule:nonzero;stroke:none"
         d="m 609.551,663.809 h 75.598 v 96.82 h -75.598 z" /><path
         id="path78"
         style="fill:#000000;fill-opacity:1;fill-rule:nonzero;stroke:none"
         d="m 533.965,458.262 h 75.586 v 75.594 h -75.586 z" /><path
         id="path80"
         style="fill:#000000;fill-opacity:1;fill-rule:nonzero;stroke:none"
         d="m 533.965,533.855 h 75.586 v 75.594 h -75.586 z" /><path
         id="path82"
         style="fill:#ffffff;fill-opacity:1;fill-rule:nonzero;stroke:none"
         d="m 533.965,609.449 h 91.387 v 75.59 h -91.387 z" /><path
         id="path84"
         style="fill:#000000;fill-opacity:1;fill-rule:nonzero;stroke:none"
         d="m 533.965,685.039 h 75.586 v 75.594 h -75.586 z" /><path
         id="path86"
         style="fill:#ffffff;fill-opacity:1;fill-rule:nonzero;stroke:none"
         d="m 458.375,458.262 h 75.594 v 86.457 h -75.594 z" /><path
         id="path88"
         style="fill:#ffffff;fill-opacity:1;fill-rule:nonzero;stroke:none"
         d="m 458.375,533.855 h 75.594 v 75.594 h -75.594 z" /><path
         id="path90"
         style="fill:#000000;fill-opacity:1;fill-rule:nonzero;stroke:none"
         d="m 458.375,609.449 h 75.594 v 75.59 h -75.594 z" /><path
         id="path92"
         style="fill:#ffffff;fill-opacity:1;fill-rule:nonzero;stroke:none"
         d="m 458.375,685.039 h 75.594 v 75.594 h -75.594 z" /><path
         id="path94"
         style="fill:#fcffff;fill-opacity:1;fill-rule:nonzero;stroke:none"
         d="M 311.863,4365.367 H 907.14 V 4960.64 H 311.863 Z" /><path
         id="path96"
         style="fill:#000000;fill-opacity:1;fill-rule:nonzero;stroke:none"
         d="m 382.73,4436.234 h 453.543 v 453.543 H 382.73 Z" /><path
         id="path98"
         style="fill:#ffffff;fill-opacity:1;fill-rule:nonzero;stroke:none"
         d="m 685.094,4511.82 h 75.586 v 75.594 h -75.586 z" /><path
         id="path100"
         style="fill:#000000;fill-opacity:1;fill-rule:nonzero;stroke:none"
         d="M 685.094,4587.414 H 760.68 V 4663 h -75.586 z" /><path
         id="path102"
         style="fill:#000000;fill-opacity:1;fill-rule:nonzero;stroke:none"
         d="m 685.094,4663 h 75.586 v 75.594 h -75.586 z" /><path
         id="path104"
         style="fill:#ffffff;fill-opacity:1;fill-rule:nonzero;stroke:none"
         d="m 685.094,4738.594 h 75.586 v 75.59 h -75.586 z" /><path
         id="path106"
         style="fill:#ffffff;fill-opacity:1;fill-rule:nonzero;stroke:none"
         d="m 609.504,4511.82 h 96.324 v 75.594 h -96.324 z" /><path
         id="path108"
         style="fill:#000000;fill-opacity:1;fill-rule:nonzero;stroke:none"
         d="m 609.504,4587.414 h 75.59 V 4663 h -75.59 z" /><path
         id="path110"
         style="fill:#000000;fill-opacity:1;fill-rule:nonzero;stroke:none"
         d="m 609.504,4663 h 75.59 v 75.594 h -75.59 z" /><path
         id="path112"
         style="fill:#ffffff;fill-opacity:1;fill-rule:nonzero;stroke:none"
         d="M 609.504,4738.594 H 710.77 v 75.59 H 609.504 Z" /><path
         id="path114"
         style="fill:#000000;fill-opacity:1;fill-rule:nonzero;stroke:none"
         d="m 533.918,4511.82 h 75.586 v 75.594 h -75.586 z" /><path
         id="path116"
         style="fill:#ffffff;fill-opacity:1;fill-rule:nonzero;stroke:none"
         d="m 510.219,4587.414 h 99.285 V 4663 h -99.285 z" /><path
         id="path118"
         style="fill:#000000;fill-opacity:1;fill-rule:nonzero;stroke:none"
         d="m 533.918,4663 h 75.586 v 75.594 h -75.586 z" /><path
         id="path120"
         style="fill:#000000;fill-opacity:1;fill-rule:nonzero;stroke:none"
         d="m 533.918,4738.594 h 75.586 v 75.59 h -75.586 z" /><path
         id="path122"
         style="fill:#000000;fill-opacity:1;fill-rule:nonzero;stroke:none"
         d="m 458.324,4511.82 h 75.594 v 75.594 h -75.594 z" /><path
         id="path124"
         style="fill:#ffffff;fill-opacity:1;fill-rule:nonzero;stroke:none"
         d="m 458.324,4587.414 h 75.594 V 4663 h -75.594 z" /><path
         id="path126"
         style="fill:#ffffff;fill-opacity:1;fill-rule:nonzero;stroke:none"
         d="m 458.324,4635.352 h 75.594 v 103.242 h -75.594 z" /><path
         id="path128"
         style="fill:#000000;fill-opacity:1;fill-rule:nonzero;stroke:none"
         d="m 458.324,4738.594 h 75.594 v 75.59 h -75.594 z" /><path
         id="path130"
         style="fill:#fcffff;fill-opacity:1;fill-rule:nonzero;stroke:none"
         d="m 6094.645,4365.371 h 595.273 v 595.277 h -595.273 z" /><path
         id="path132"
         style="fill:#000000;fill-opacity:1;fill-rule:nonzero;stroke:none"
         d="m 6164.898,4435.625 h 454.766 v 454.77 h -454.766 z" /><path
         id="path134"
         style="fill:#000000;fill-opacity:1;fill-rule:nonzero;stroke:none"
         d="m 6468.078,4511.422 h 75.793 v 75.789 h -75.793 z" /><path
         id="path136"
         style="fill:#000000;fill-opacity:1;fill-rule:nonzero;stroke:none"
         d="m 6468.078,4587.211 h 75.793 v 75.801 h -75.793 z" /><path
         id="path138"
         style="fill:#000000;fill-opacity:1;fill-rule:nonzero;stroke:none"
         d="m 6468.078,4663.012 h 75.793 v 75.785 h -75.793 z" /><path
         id="path140"
         style="fill:#000000;fill-opacity:1;fill-rule:nonzero;stroke:none"
         d="m 6468.078,4738.797 h 75.793 v 75.805 h -75.793 z" /><path
         id="path142"
         style="fill:#ffffff;fill-opacity:1;fill-rule:nonzero;stroke:none"
         d="m 6392.281,4511.422 h 75.797 v 89.648 h -75.797 z" /><path
         id="path144"
         style="fill:#ffffff;fill-opacity:1;fill-rule:nonzero;stroke:none"
         d="m 6392.281,4587.211 h 75.797 v 91.641 h -75.797 z" /><path
         id="path146"
         style="fill:#ffffff;fill-opacity:1;fill-rule:nonzero;stroke:none"
         d="m 6392.281,4663.012 h 75.797 v 89.645 h -75.797 z" /><path
         id="path148"
         style="fill:#ffffff;fill-opacity:1;fill-rule:nonzero;stroke:none"
         d="m 6371.492,4738.797 h 96.586 v 75.805 h -96.586 z" /><path
         id="path150"
         style="fill:#ffffff;fill-opacity:1;fill-rule:nonzero;stroke:none"
         d="m 6316.484,4511.422 h 95.602 v 75.789 h -95.602 z" /><path
         id="path152"
         style="fill:#000000;fill-opacity:1;fill-rule:nonzero;stroke:none"
         d="m 6316.484,4587.211 h 75.797 v 75.801 h -75.797 z" /><path
         id="path154"
         style="fill:#000000;fill-opacity:1;fill-rule:nonzero;stroke:none"
         d="m 6316.484,4663.012 h 75.797 v 75.785 h -75.797 z" /><path
         id="path156"
         style="fill:#ffffff;fill-opacity:1;fill-rule:nonzero;stroke:none"
         d="m 6316.484,4738.797 h 75.797 v 75.805 h -75.797 z" /><path
         id="path158"
         style="fill:#ffffff;fill-opacity:1;fill-rule:nonzero;stroke:none"
         d="m 6240.695,4511.422 h 86.68 v 75.789 h -86.68 z" /><path
         id="path160"
         style="fill:#000000;fill-opacity:1;fill-rule:nonzero;stroke:none"
         d="m 6240.695,4587.211 h 75.789 v 75.801 h -75.789 z" /><path
         id="path162"
         style="fill:#ffffff;fill-opacity:1;fill-rule:nonzero;stroke:none"
         d="m 6240.695,4663.012 h 75.789 v 75.785 h -75.789 z" /><path
         id="path164"
         style="fill:#000000;fill-opacity:1;fill-rule:nonzero;stroke:none"
         d="m 6240.695,4738.797 h 75.789 v 75.805 h -75.789 z" /><path
         id="path166"
         style="fill:#fcffff;fill-opacity:1;fill-rule:nonzero;stroke:none"
         d="m 6094.402,310.512 h 595.273 v 595.277 h -595.273 z" /><path
         id="path168"
         style="fill:#000000;fill-opacity:1;fill-rule:nonzero;stroke:none"
         d="m 6165.27,381.379 h 453.543 V 834.922 H 6165.27 Z" /><path
         id="path170"
         style="fill:#ffffff;fill-opacity:1;fill-rule:nonzero;stroke:none"
         d="m 6467.629,456.969 h 75.598 v 75.594 h -75.598 z" /><path
         id="path172"
         style="fill:#000000;fill-opacity:1;fill-rule:nonzero;stroke:none"
         d="m 6467.629,532.562 h 75.598 v 75.582 h -75.598 z" /><path
         id="path174"
         style="fill:#ffffff;fill-opacity:1;fill-rule:nonzero;stroke:none"
         d="m 6467.629,608.145 h 75.598 v 95.145 h -75.598 z" /><path
         id="path176"
         style="fill:#ffffff;fill-opacity:1;fill-rule:nonzero;stroke:none"
         d="m 6445.285,683.742 h 97.941 v 75.594 h -97.941 z" /><path
         id="path178"
         style="fill:#000000;fill-opacity:1;fill-rule:nonzero;stroke:none"
         d="m 6392.035,456.969 h 75.594 v 75.594 h -75.594 z" /><path
         id="path180"
         style="fill:#ffffff;fill-opacity:1;fill-rule:nonzero;stroke:none"
         d="m 6392.035,532.562 h 75.594 v 75.582 h -75.594 z" /><path
         id="path182"
         style="fill:#000000;fill-opacity:1;fill-rule:nonzero;stroke:none"
         d="m 6392.035,608.145 h 75.594 v 75.598 h -75.594 z" /><path
         id="path184"
         style="fill:#ffffff;fill-opacity:1;fill-rule:nonzero;stroke:none"
         d="m 6375.98,683.742 h 91.652 v 75.594 h -91.652 z" /><path
         id="path186"
         style="fill:#000000;fill-opacity:1;fill-rule:nonzero;stroke:none"
         d="m 6316.449,456.969 h 75.586 v 75.594 h -75.586 z" /><path
         id="path188"
         style="fill:#000000;fill-opacity:1;fill-rule:nonzero;stroke:none"
         d="m 6316.449,532.562 h 75.586 v 75.582 h -75.586 z" /><path
         id="path190"
         style="fill:#ffffff;fill-opacity:1;fill-rule:nonzero;stroke:none"
         d="m 6299.691,608.145 h 92.344 v 75.598 h -92.344 z" /><path
         id="path192"
         style="fill:#ffffff;fill-opacity:1;fill-rule:nonzero;stroke:none"
         d="m 6316.449,669.781 h 75.586 v 89.555 h -75.586 z" /><path
         id="path194"
         style="fill:#000000;fill-opacity:1;fill-rule:nonzero;stroke:none"
         d="m 6240.855,456.969 h 75.594 v 75.594 h -75.594 z" /><path
         id="path196"
         style="fill:#000000;fill-opacity:1;fill-rule:nonzero;stroke:none"
         d="m 6240.855,532.562 h 75.594 v 75.582 h -75.594 z" /><path
         id="path198"
         style="fill:#ffffff;fill-opacity:1;fill-rule:nonzero;stroke:none"
         d="m 6240.855,608.145 h 75.594 v 75.598 h -75.594 z" /><path
         id="path200"
         style="fill:#000000;fill-opacity:1;fill-rule:nonzero;stroke:none"
         d="m 6240.855,683.742 h 75.594 v 75.594 h -75.594 z" /></g></g></svg>
